<?xml version="1.0" encoding="UTF-8"?> <svg xmlns="http://www.w3.org/2000/svg" xmlns:xlink="http://www.w3.org/1999/xlink" version="1.1" id="Layer_1" x="0px" y="0px" viewBox="0 0 570 119" style="enable-background:new 0 0 570 119;" xml:space="preserve"> <style type="text/css"> .st0{fill:#9235C1;} .st1{fill:#FFCA4B;} </style> <g> <circle class="st0" cx="553.9" cy="94.9" r="12.5"></circle> <path class="st1" d="M555.5,51.9c-0.7-0.7-1.5-1.1-2.5-1.1c-1.2,0-2.4,0.6-3.8,1.7c-1.4,1.2-2.3,1.9-2.7,2.2 c-4.8,3.8-11.7,8.1-20.5,13c-8.9,4.9-18.3,9.1-28.2,12.7c-9.9,3.6-18.8,5.4-26.7,5.4c-9.2,0-16.2-1.5-21-4.6 c-4.8-3.1-8.1-7.8-9.8-14.2c-0.1-0.6-0.3-1.3-0.5-2.3c-0.2-0.9-0.6-1.6-1.2-2.1c-0.1-0.1-0.3-0.2-0.6-0.3c-1.2,1.8-3.1,2.8-4.9,4.2 c-2.1,1.6-4.7,2.5-7.3,2.4c-0.4,0-0.7-0.1-1.1-0.2c-0.8-0.4-1.1-1.3-1.2-2.1c-0.1-0.7,0-1.4,0.2-2.1c0.1-0.2,0.1-0.5,0.2-0.7 c0,0,0,0,0,0c0.1-0.2,0.2-0.4,0.3-0.6c0,0,0-0.1,0-0.1c0.1-0.2,0.2-0.4,0.3-0.5c0,0,0-0.1,0.1-0.1c0.1-0.2,0.3-0.4,0.4-0.6 c1-1.4,2.3-2.5,3.7-3.5c1.5-1.1,3.1-2.2,4.6-3.3c0.7-0.5,1.5-0.9,2.3-1.1c0.1,0,0.3-0.1,0.4-0.1c1-0.1,2.1,0.3,2.5,1.2 c0.8,1.8-1,4.2-0.4,6.1c0,0,0.1,0.1,0.1,0.1c0.7,0.7,1.7,1,2.8,1c1.2,0,2.1-0.4,2.8-1.2c0.7-0.8,1.1-1.7,1.1-2.7c0-2.9-0.7-5.2-2-7 c-1.3-1.7-3.3-2.6-5.9-2.6c-2.3,0-5,1.1-8.1,3.3c-0.3,0.2-0.6,0.5-0.9,0.7c-7.7,5.1-17.5,10.3-29.4,15.5 c-11.9,5.2-23.6,9.6-35.2,13c-11.6,3.4-20.8,5.1-27.6,5.1c-2.6,0-3.9-0.9-3.9-2.6c0-1,0.8-3.6,2.4-7.9c2.5-6.3,3.7-10.6,3.7-13.1 c0-3.6-1.1-6.2-3.3-7.6c-2.2-1.5-4.9-2.5-8.1-3.3c-4.1-1-6.4-3.1-7-6.1c-0.4-2.3-1.7-3.5-3.9-3.5c-1,0-1.9,0.4-2.7,1.1 c-0.8,0.7-1.2,1.7-1.2,2.8c0,3.1,1.2,5.8,3.6,8.2c0.2,0.2,0.4,0.4,0.7,0.6c-4.8,3.8-11.6,8.1-20.4,12.9 c-8.9,4.9-18.3,9.1-28.2,12.7c-9.9,3.6-18.8,5.4-26.7,5.4c-9.2,0-16.2-1.5-21-4.6c-4.8-3.1-8.1-7.8-9.8-14.2 c-0.1-0.6-0.3-1.3-0.5-2.3c-0.2-0.9-0.6-1.6-1.2-2.1c-0.1-0.1-0.3-0.2-0.6-0.3c-1.2,1.8-3.1,2.8-4.9,4.2c-2.1,1.6-4.7,2.5-7.3,2.4 c-0.4,0-0.7-0.1-1.1-0.2c-0.8-0.4-1.1-1.3-1.2-2.1c0-0.5,0-1,0.1-1.4c0-0.3,0.1-0.6,0.2-0.9c0,0,0,0,0,0c0.2-0.5,0.4-1.1,0.7-1.6 c0-0.1,0.1-0.1,0.1-0.2c0.1-0.2,0.3-0.5,0.5-0.7c1-1.4,2.3-2.5,3.7-3.5c1.5-1.1,3.1-2.2,4.6-3.3c0.8-0.5,1.7-1.1,2.7-1.2 c1-0.1,2.1,0.3,2.5,1.2c0.8,1.8-1,4.2-0.4,6.1c0,0,0.1,0.1,0.1,0.1c0.7,0.7,1.7,1,2.8,1c1.2,0,2.1-0.4,2.8-1.2 c0.7-0.8,1.1-1.7,1.1-2.7c0-2.9-0.7-5.2-2-7c-1.3-1.7-3.3-2.6-5.9-2.6c-2.3,0-5,1.1-8.1,3.3c-0.9,0.6-1.7,1.3-2.5,2 c-0.5,0.2-1.1,0.5-1.7,0.9c-13.8,8.3-31.1,16.7-51.9,25.1s-41.5,15.4-62.3,20.9c-20.8,5.5-38,8.2-51.9,8.2c-5.5,0-9.8-1.2-12.9-3.5 c-3.1-2.3-4.6-5.5-4.6-9.6c0-9.3,6.5-20.9,19.4-34.6c13-13.8,28.7-25.7,47.1-35.8c18.4-10.1,35.4-15.2,51-15.2c8.3,0,15.7,2,22.3,6 c6.6,4,11.6,9.7,15.3,17.1c1.3,2.5,2.2,4,2.7,4.7c0.5,0.7,1.3,1,2.5,1c1,0,1.9-0.4,2.7-1.1c0.8-0.7,1.2-1.5,1.2-2.4 c0-0.9-0.7-2.8-2.2-5.7c-4.4-8.7-10.5-15.5-18.2-20.3c-7.8-4.8-16.6-7.2-26.3-7.2c-15.4,0-33.1,5.3-53,15.9 C56.2,28.8,39.1,41.6,24.9,56.4C10.7,71.3,3.6,84.4,3.6,95.8c0,6.4,2.3,11.5,7,15.3c4.7,3.8,10.8,5.7,18.4,5.7 c14.4,0,32.3-2.8,53.5-8.3c21.3-5.5,42.5-12.6,63.8-21.2c15.9-6.4,29.8-12.8,41.7-19.2c0.1,2.1,0.7,3.8,2.1,5.1 c1.4,1.4,3.2,2.1,5.4,2.1c2.6,0,5.5-1.2,8.7-3.5c1.9,7,5.8,12.4,11.7,16.2c5.9,3.8,14.3,5.7,25.2,5.7c8.3,0,17.8-1.9,28.4-5.8 c10.6-3.9,20.7-8.4,30.3-13.8c9.5-5.3,17.3-10.2,23.3-14.5c0.3-0.3,0.7-0.5,1-0.7c0.4,0.1,0.8,0.2,1.2,0.3c1.9,0.4,3.2,0.9,4,1.4 c0.8,0.5,1.2,1.2,1.2,2.1c0,1.5-0.3,3.1-1,5c-0.7,1.9-1.3,3.7-2.1,5.5c-2,5.2-3.1,9-3.1,11.4c0,3.1,1,5.4,3.1,7.1 c2,1.7,4.9,2.5,8.7,2.5c7.4,0,17.2-1.8,29.3-5.4c12.1-3.6,24.4-8.1,36.8-13.7c5.7-2.6,11-5.1,15.8-7.6c0,0.1,0,0.3,0,0.4 c0,2.2,0.7,4,2.1,5.4c1.4,1.4,3.2,2.1,5.4,2.1c2.6,0,5.5-1.2,8.7-3.5c1.9,7,5.8,12.4,11.7,16.2c5.9,3.8,14.3,5.7,25.2,5.7 c8.3,0,17.8-1.9,28.4-5.8c10.6-3.9,20.7-8.4,30.3-13.8c9.5-5.3,17.3-10.2,23.3-14.5c1.2-0.9,2-1.6,2.6-2.3c0.6-0.7,0.9-1.5,0.9-2.5 C556.5,53.5,556.2,52.6,555.5,51.9z"></path> </g> </svg> 